<?xml version="1.0" encoding="UTF-8"?>
<svg id="Layer_1" data-name="Layer 1" xmlns="http://www.w3.org/2000/svg" xmlns:xlink="http://www.w3.org/1999/xlink" version="1.1" viewBox="0 0 1200.08 418.52">
  <defs>
    <style>
      .cls-1 {
        clip-path: url(#clippath);
      }

      .cls-2 {
        fill: none;
      }

      .cls-2, .cls-3 {
        stroke-width: 0px;
      }

      .cls-3 {
        fill: #fff;
      }
    </style>
    <clipPath id="clippath">
      <rect class="cls-2" width="1200.08" height="418.52"/>
    </clipPath>
  </defs>
  <g class="cls-1">
    <path class="cls-3" d="M1115.87,126.88l5.63,17.33c.59,1.82,2.28,3.04,4.19,3.04h18.22c4.26,0,6.04,5.46,2.59,7.96l-14.74,10.71c-1.54,1.12-2.19,3.11-1.6,4.92l5.63,17.33c1.32,4.06-3.32,7.43-6.77,4.92l-14.74-10.71c-1.54-1.12-3.63-1.12-5.18,0l-14.74,10.71c-3.45,2.51-8.09-.87-6.78-4.92l5.63-17.33c.59-1.81-.05-3.8-1.6-4.92l-14.74-10.71c-3.45-2.51-1.68-7.96,2.59-7.96h18.22c1.91,0,3.6-1.23,4.19-3.04l5.63-17.33c1.32-4.05,7.05-4.05,8.37,0"/>
    <path class="cls-3" d="M122.99,235.94c-4.69-2.12-10.67-4.24-17.94-6.36-7.27-2.12-12.64-4.16-16.12-6.13-3.48-1.97-5.22-4.82-5.22-8.55,0-2.93,1.21-5.15,3.63-6.66,2.42-1.51,5.7-2.27,9.84-2.27s9.56.98,15.67,2.95c6.1,1.97,11.88,4.62,17.33,7.95l9.23-19.83c-5.45-3.53-11.71-6.36-18.77-8.48-7.06-2.12-14.23-3.18-21.5-3.18-8.17,0-15.34,1.29-21.5,3.86-6.16,2.57-10.95,6.26-14.38,11.05-3.43,4.79-5.15,10.37-5.15,16.73,0,6.86,1.67,12.36,4.99,16.5,3.33,4.14,7.29,7.22,11.88,9.24,4.59,2.02,10.52,4.04,17.79,6.06,5.05,1.41,9.01,2.68,11.88,3.79,2.88,1.11,5.25,2.55,7.12,4.31,1.86,1.77,2.8,4.01,2.8,6.74,0,3.43-1.39,6.06-4.16,7.87-2.78,1.82-6.64,2.73-11.58,2.73-5.75,0-12.11-1.46-19.08-4.39-6.96-2.92-13.12-6.81-18.47-11.66l-9.54,19.53c6.06,5.25,13.22,9.39,21.5,12.42,8.28,3.03,16.71,4.54,25.29,4.54,7.97,0,15.09-1.26,21.35-3.79,6.26-2.52,11.18-6.23,14.76-11.13,3.58-4.89,5.37-10.72,5.37-17.49s-1.66-12.56-4.99-16.8c-3.33-4.24-7.34-7.42-12.04-9.54"/>
    <path class="cls-3" d="M246.77,187.35v20.28h-27.71c-2.59,0-4.68,2.1-4.68,4.7v81h-23.93v-81c0-2.59-2.09-4.7-4.68-4.7h-27.56v-20.28h35.12l7.28,2.61c1.21.45,2.55.45,3.76,0l7.28-2.61h35.12Z"/>
    <path class="cls-3" d="M323.99,198.73c-2.95-6.91-9.73-11.39-17.24-11.39s-14.23,4.44-17.19,11.28l-41.13,94.69h20.09c2.76,0,5.25-1.67,6.3-4.25l3.65-9.01c1.78-4.42,6.08-7.32,10.85-7.32l13.02,2.93c2.52.55,5.13.55,7.63-.03l12.6-2.9c4.77,0,9.07,2.9,10.87,7.32l3.64,9.01c1.04,2.58,3.53,4.25,6.31,4.25h21l-40.41-94.58ZM318.7,252.11l-10.7,3.84c-1.21.45-2.55.45-3.76,0l-10.7-3.84c-1.67-.78-2.44-2.75-1.75-4.47l12.31-30.58c.72-1.81,3.3-1.81,4.04,0l12.31,30.58c.69,1.72-.08,3.68-1.75,4.47"/>
    <path class="cls-3" d="M451.98,258.34c6.46-3.02,11.39-7.45,14.77-13.25,3.38-5.8,5.08-12.79,5.08-20.97,0-11.7-3.79-20.76-11.38-27.17-7.55-6.4-18.25-9.61-32.08-9.61h-46.02v105.97h17.39c3.61,0,6.52-2.92,6.52-6.52v-19.07c0-2.58,2.1-4.68,4.68-4.68h16.81c1.78,0,3.42.97,4.28,2.53l13.46,24.24c1.2,2.17,3.47,3.5,5.94,3.5h23.1l-22.57-34.97ZM443.74,238.43c-3.58,3.09-8.7,4.62-15.37,4.62h-22.11v-31.27c.06-2.55,2.12-4.6,4.68-4.6h17.42c6.66,0,11.79,1.49,15.37,4.47,3.59,2.98,5.37,7.4,5.37,13.25s-1.78,10.45-5.37,13.54"/>
    <path class="cls-3" d="M585.14,246.3c-2.92-3.55-6.63-6.16-11.16-7.8-1.41-.51-1.5-2.49-.17-3.13,3.42-1.61,6.26-3.88,8.54-6.79,3.27-4.18,4.91-9.1,4.91-14.75,0-8.18-3.38-14.63-10.13-19.39-6.77-4.73-16-7.11-27.71-7.11h-48.76v105.97h50.42c12.31,0,22.06-2.63,29.23-7.88,7.17-5.24,10.75-12.4,10.75-21.49,0-6.97-1.96-12.85-5.91-17.64M524.6,211.55c0-2.58,2.09-4.68,4.68-4.68h18.93c4.54-.09,8.1.86,10.67,2.87,2.58,2.03,3.87,4.85,3.87,8.49s-1.29,6.63-3.87,8.7c-2.56,2.07-6.12,3.1-10.67,3.1h-23.61v-18.48ZM561.53,270.38c-3.24,2.27-7.68,3.41-13.33,3.41h-23.61v-20.45c0-2.58,2.09-4.68,4.68-4.68h18.93c5.65-.11,10.09.95,13.33,3.18,3.22,2.23,4.84,5.25,4.84,9.09,0,4.04-1.61,7.18-4.84,9.46"/>
    <path class="cls-3" d="M639.83,273.49v-18.78c0-2.59,2.1-4.69,4.68-4.69h46.34v-19.83h-51.02v-18.33c0-2.59,2.1-4.68,4.68-4.68h52.09v-19.83h-80.69v105.97h82.36v-19.83h-58.44Z"/>
    <path class="cls-3" d="M927.2,247.96c0,2.51-3.19,3.57-4.7,1.57l-44.75-59.49c-1.27-1.7-3.27-2.69-5.39-2.69h-17.98c-.25,0-.46.2-.46.45v105.06c0,.25.2.46.46.46h15.16c4,0,7.25-3.25,7.25-7.25v-53.07c0-2.5,3.19-3.57,4.7-1.57l44.6,59.2c1.28,1.69,3.28,2.69,5.4,2.69h17.97c.25,0,.46-.2.46-.46v-105.06c0-.25-.2-.45-.46-.45h-15c-4,0-7.25,3.24-7.25,7.25v53.36Z"/>
    <path class="cls-3" d="M1057.47,245.48c-3.33-4.24-7.34-7.42-12.03-9.54-4.69-2.12-10.67-4.24-17.94-6.36-7.27-2.12-12.64-4.16-16.12-6.13-3.48-1.97-5.22-4.82-5.22-8.55,0-2.93,1.21-5.15,3.63-6.66,2.42-1.51,5.7-2.27,9.84-2.27s9.56.98,15.67,2.95c6.11,1.97,11.89,4.62,17.34,7.95l9.24-19.83c-5.45-3.53-11.71-6.36-18.77-8.48-7.07-2.12-14.23-3.18-21.5-3.18-8.17,0-15.34,1.29-21.5,3.86-6.16,2.57-10.95,6.26-14.38,11.05-3.43,4.8-5.15,10.37-5.15,16.73,0,6.87,1.66,12.36,4.99,16.5,3.33,4.14,7.29,7.22,11.89,9.24,4.59,2.02,10.52,4.04,17.79,6.06,5.05,1.41,9.01,2.68,11.89,3.79,2.88,1.11,5.25,2.55,7.11,4.31,1.87,1.77,2.8,4.01,2.8,6.74,0,3.43-1.39,6.06-4.16,7.87-2.78,1.82-6.64,2.73-11.58,2.73-5.76,0-12.11-1.46-19.08-4.39-6.96-2.92-13.12-6.81-18.47-11.66l-9.54,19.53c6.06,5.25,13.22,9.39,21.5,12.41,8.28,3.03,16.7,4.54,25.28,4.54,7.97,0,15.09-1.26,21.35-3.78,6.26-2.52,11.18-6.23,14.76-11.13,3.58-4.89,5.38-10.72,5.38-17.49s-1.67-12.57-5-16.8"/>
    <path class="cls-3" d="M793.45,198.73c-2.95-6.91-9.73-11.39-17.24-11.39s-14.23,4.44-17.19,11.28l-41.13,94.69h20.1c2.76,0,5.25-1.67,6.29-4.25l3.65-9.01c1.78-4.42,6.08-7.32,10.85-7.32l13.02,2.93c2.52.55,5.13.55,7.63-.03l12.6-2.9c4.78,0,9.07,2.9,10.87,7.32l3.64,9.01c1.04,2.58,3.53,4.25,6.31,4.25h21l-40.41-94.58ZM788.15,252.11l-10.7,3.84c-1.21.45-2.55.45-3.76,0l-10.7-3.84c-1.67-.78-2.44-2.75-1.75-4.47l12.31-30.58c.72-1.81,3.3-1.81,4.04,0l12.31,30.58c.69,1.72-.08,3.68-1.75,4.47"/>
  </g>
</svg>