<?xml version="1.0" encoding="UTF-8"?>
<svg id="Layer_1" data-name="Layer 1" xmlns="http://www.w3.org/2000/svg" version="1.1" viewBox="0 0 512 512">
  <defs>
    <style>
      .cls-1 {
        fill: #30572a;
      }

      .cls-1, .cls-2 {
        stroke-width: 0px;
      }

      .cls-2 {
        fill: #fff;
      }
    </style>
  </defs>
  <rect class="cls-1" width="512" height="512" rx="81.4" ry="81.4"/>
  <path class="cls-2" d="M425.96,48.41l8.71,27.54c.91,2.88,3.53,4.83,6.47,4.83h28.19c6.6,0,9.34,8.67,4,12.65l-22.81,17.02c-2.39,1.78-3.39,4.94-2.47,7.82l8.71,27.54c2.04,6.44-5.14,11.8-10.48,7.82l-22.81-17.02c-2.39-1.78-5.62-1.78-8.01,0l-22.8,17.02c-5.34,3.98-12.52-1.38-10.48-7.82l8.71-27.54c.91-2.88-.08-6.04-2.47-7.82l-22.81-17.02c-5.34-3.98-2.59-12.65,4-12.65h28.19c2.95,0,5.57-1.95,6.48-4.83l8.71-27.54c2.04-6.44,10.92-6.44,12.96,0"/>
  <path class="cls-2" d="M345.46,295.98c-8.58-11.22-18.92-19.64-31.01-25.25-12.1-5.61-27.51-11.22-46.23-16.83-18.73-5.61-32.57-11.02-41.55-16.23-8.98-5.21-13.46-12.75-13.46-22.64,0-7.75,3.12-13.62,9.36-17.63,6.24-4.01,14.69-6.02,25.36-6.02s24.64,2.61,40.38,7.82c15.73,5.21,30.62,12.22,44.67,21.04l23.8-52.5c-14.05-9.34-30.18-16.83-48.38-22.44-18.21-5.61-36.67-8.42-55.4-8.42-21.07,0-39.54,3.4-55.4,10.22-15.87,6.81-28.23,16.57-37.06,29.25-8.84,12.7-13.26,27.45-13.26,44.28,0,18.17,4.29,32.73,12.87,43.68,8.58,10.96,18.79,19.1,30.62,24.45,11.83,5.35,27.12,10.69,45.84,16.03,13,3.74,23.21,7.08,30.63,10.02,7.41,2.94,13.52,6.75,18.33,11.42,4.81,4.68,7.22,10.62,7.22,17.84,0,9.08-3.58,16.03-10.74,20.84-7.15,4.81-17.1,7.21-29.84,7.21-14.82,0-31.21-3.87-49.16-11.62-17.95-7.75-33.81-18.03-47.6-30.86l-24.58,51.69c15.6,13.89,34.07,24.85,55.4,32.86,21.32,8.02,43.04,12.02,65.15,12.02,20.54,0,38.88-3.34,55.01-10.01,16.12-6.68,28.8-16.5,38.04-29.46,9.23-12.96,13.85-28.39,13.85-46.29s-4.29-33.26-12.87-44.48"/>
</svg>